<svg id="Layer_1" data-name="Layer 1" xmlns="http://www.w3.org/2000/svg" xmlns:xlink="http://www.w3.org/1999/xlink" viewBox="0 0 108.12 103.67"><defs><style>.cls-1{fill:none;}.cls-10,.cls-12,.cls-2,.cls-4,.cls-5,.cls-6,.cls-7,.cls-9{fill-rule:evenodd;}.cls-2{fill:url(#linear-gradient);}.cls-3{clip-path:url(#clip-path);}.cls-4{fill:#173b8e;fill-opacity:0.22;}.cls-5{fill:url(#linear-gradient-2);}.cls-6{fill:url(#linear-gradient-3);}.cls-7{fill:url(#linear-gradient-4);}.cls-8{clip-path:url(#clip-path-2);}.cls-9{fill:#b0e66d;fill-opacity:0.98;}.cls-10{fill:url(#linear-gradient-5);}.cls-11{clip-path:url(#clip-path-3);}.cls-12{fill:#ff7a4f;fill-opacity:0.4;}</style><linearGradient id="linear-gradient" x1="-947.91" y1="-375.83" x2="-947.47" y2="-375.83" gradientTransform="matrix(98.98, -90.95, 90.95, 98.97, 128222.77, -48757.61)" gradientUnits="userSpaceOnUse"><stop offset="0" stop-color="#5a41eb"/><stop offset="0.5" stop-color="#8345be"/><stop offset="1" stop-color="#ff5037"/></linearGradient><clipPath id="clip-path" transform="translate(-196.23 -198.1)"><path class="cls-1" d="M232.11,280.6c.76,0-25.74,19.77-31.06,8.43a20.15,20.15,0,0,1-.75-15.94S244,198,243.66,198.1c-.09,0,9.22,19.49,9.22,19.49-12.17,20.61-26.75,44.68-28.59,51.84C222.68,275.66,227.13,280.66,232.11,280.6Z"/></clipPath><linearGradient id="linear-gradient-2" x1="-948.06" y1="-392.92" x2="-947.62" y2="-392.92" gradientTransform="matrix(-21.54, 20.72, -20.72, -21.54, -28340.61, 11448.63)" gradientUnits="userSpaceOnUse"><stop offset="0" stop-color="#173b8e" stop-opacity="0.25"/><stop offset="1" stop-color="#011950"/></linearGradient><linearGradient id="linear-gradient-3" x1="-948.05" y1="-393.46" x2="-947.61" y2="-393.46" gradientTransform="matrix(-21.54, 20.72, -20.72, -21.54, -28340.11, 11448.15)" xlink:href="#linear-gradient-2"/><linearGradient id="linear-gradient-4" x1="-943.45" y1="-380.54" x2="-943.01" y2="-380.54" gradientTransform="translate(9349.35 89583.93) rotate(62.2) scale(88.26)" gradientUnits="userSpaceOnUse"><stop offset="0" stop-color="#a5ff37"/><stop offset="1" stop-color="#98d948"/></linearGradient><clipPath id="clip-path-2" transform="translate(-196.23 -198.1)"><path class="cls-1" d="M256.45,282.12c2.44,1.31,4.22,4.82,6.38,8.64,2.8,5,5.73,9.83,5.73,9.83H216.41s-11.49.59-16.47-9.88c-4.12-8.65-2-13.66.79-18.57,3.07-5.45,8.23-14,8.23-14A13.21,13.21,0,0,0,210.71,272a20.44,20.44,0,0,0,16.37,8.5h11.71C251.12,280.41,252.33,279.9,256.45,282.12Z"/></clipPath><linearGradient id="linear-gradient-5" x1="-945.68" y1="-378.53" x2="-945.24" y2="-378.53" gradientTransform="matrix(143.96, 108.55, -108.55, 143.96, 95281.62, 157391.61)" gradientUnits="userSpaceOnUse"><stop offset="0" stop-color="#5a41eb"/><stop offset="0.19" stop-color="#9f479f"/><stop offset="0.4" stop-color="#e24d56"/><stop offset="1" stop-color="#ff5037"/></linearGradient><clipPath id="clip-path-3" transform="translate(-196.23 -198.1)"><path class="cls-1" d="M302.62,300.39,278,257.65a13.86,13.86,0,0,0-4.58-4.9,12.2,12.2,0,0,0-6.5-1.71H244.18L233,270.42s15-.25,19.85,0c3.16.17,6.22-.41,9.4,1.53,2.68,1.64,4.17,4.47,5.62,7l12.41,21.46Z"/></clipPath></defs><path class="cls-2" d="M232.11,280.6c.76,0-25.74,19.77-31.06,8.43a20.15,20.15,0,0,1-.75-15.94S244,198,243.66,198.1c-.09,0,9.22,19.49,9.22,19.49-12.17,20.61-26.75,44.68-28.59,51.84C222.68,275.66,227.13,280.66,232.11,280.6Z" transform="translate(-196.23 -198.1)"/><g class="cls-3"><path class="cls-4" d="M243.66,198.1s2.85,13-2.78,24.83S228,243.8,235.59,252L224.1,271.63a17.11,17.11,0,0,0,0,4.29c.19,1.22,3.53,4,3.92,4.74,2.09,3.94-15.69-2.32-18.31-6.8-3.16-5.41-5.67-10.14,2.95-22Z" transform="translate(-196.23 -198.1)"/><path class="cls-5" d="M237.44,280.87c7.51,0-21.12,19.92-21.12,19.92a18.2,18.2,0,0,1-16.69-10.72c-4.06-8.68.67-17,.67-17s18-32.27,17.92-32.18,4.36,6.74,1,17.43c-2.7,8.65,5.45,13.15,5.44,13.15-.29,5,2.57,8.71,7.55,8.65C233,280.14,233.44,280.87,237.44,280.87Z" transform="translate(-196.23 -198.1)"/><path class="cls-6" d="M253.27,284.79c5.07,2.77,9.25,8.74,9.25,8.74l4.06,7.06h-50a18.2,18.2,0,0,1-16.69-10.73c-4.06-8.66.67-17,.67-17s18.57-32,18.5-31.86,3.77,6.42.44,17.12c-2.7,8.64,4.9,13.19,4.91,13.21.81,5.09,3,9.2,8,9.15.76,0,1.26.16,5.25.16A28.67,28.67,0,0,1,253.27,284.79Z" transform="translate(-196.23 -198.1)"/></g><path class="cls-7" d="M256.45,282.12c2.44,1.31,4.22,4.82,6.38,8.64,2.8,5,5.73,9.83,5.73,9.83H216.41s-11.49.59-16.47-9.88c-4.12-8.65-2-13.66.79-18.57,3.07-5.45,8.23-14,8.23-14A13.21,13.21,0,0,0,210.71,272a20.44,20.44,0,0,0,16.37,8.5h11.71C251.12,280.41,252.33,279.9,256.45,282.12Z" transform="translate(-196.23 -198.1)"/><g class="cls-8"><path class="cls-9" d="M259.51,291.23c7.57,5.25,8.23,10.42,8.23,10.42l-53.3.13c-14.39-2.22-16-13.82-18.21-17.21,0,0,14.18,14.67,34.38,6.05C238.63,287.21,248.42,283.55,259.51,291.23Z" transform="translate(-196.23 -198.1)"/></g><path class="cls-10" d="M302.62,300.39,278,257.65a13.86,13.86,0,0,0-4.58-4.9,12.2,12.2,0,0,0-6.5-1.71H244.18L233,270.42s15-.25,19.85,0c3.16.17,6.22-.41,9.4,1.53,2.68,1.64,4.17,4.47,5.62,7l12.41,21.46Z" transform="translate(-196.23 -198.1)"/><g class="cls-11"><path class="cls-12" d="M236.18,252.36s6.87,7,16,9.82c12.45,3.84,26,1.88,31.76,13,4.59,8.93-1.17,19.83,2.56,26.17l17.86-.13L276.94,253l-11.09-4.16-22.21.35Z" transform="translate(-196.23 -198.1)"/></g></svg>