<svg width="315" height="633" viewBox="0 0 315 633" fill="none" xmlns="http://www.w3.org/2000/svg">
<path d="M6.09761 633C5.55978 633 5.04397 632.784 4.66367 632.4C4.28336 632.015 4.06971 631.493 4.06971 630.95C4.06971 630.406 4.28336 629.884 4.66367 629.499C5.04397 629.115 5.55978 628.899 6.09761 628.899C174.197 626.711 310.958 486.584 310.958 316.514C310.958 144.243 172.372 4.10203 2.04181 4.10203C1.50398 4.10203 0.988178 3.88596 0.607874 3.50135C0.227569 3.11675 0.013916 2.5951 0.013916 2.05119C0.013916 1.50727 0.227569 0.985629 0.607874 0.601021C0.988178 0.216413 1.50398 0.000342364 2.04181 0.000342364C43.1554 -0.108361 83.8821 8.02968 121.865 23.9436C159.848 39.8574 194.334 63.2312 223.326 92.7122C252.479 122.034 275.592 156.912 291.328 195.327C307.064 233.743 315.11 274.933 315 316.514C315.204 399.833 282.721 479.832 224.678 538.962C166.996 598.313 88.4079 632.127 6.12465 633H6.09761Z" fill="#313042"/>
</svg>
